<svg xmlns="http://www.w3.org/2000/svg" viewBox="0 0 283.46 323.46"><defs><style>.cls-1,.cls-2{fill:none;stroke-linecap:round;stroke-linejoin:round;stroke-width:2.16px;}.cls-1{stroke:#a7a9ac;}.cls-2{stroke:#fff;}.cls-3,.cls-5{fill:#fff;}.cls-4{fill:#a7a9ac;}.cls-5{font-size:48.27px;font-family:Anurati-Regular, Anurati;letter-spacing:0.07em;}</style></defs><title>LOGO3-edit2-W</title><g id="Capa_2" data-name="Capa 2"><polygon class="cls-1" points="75.11 134.35 162 53.35 188.74 169.09 75.11 134.35"/><polygon class="cls-1" points="242.35 96.36 162 53.35 71.29 44.25 75.11 134.35 111.69 217.94 188.74 169.09 242.35 96.36"/><polygon class="cls-2" points="212.13 195.24 111.53 218.45 41.11 142.96 71.29 44.25 171.88 21.04 242.3 96.53 212.13 195.24"/><polygon class="cls-2" points="208.44 104.67 121.55 185.68 94.81 69.93 208.44 104.67"/><polygon class="cls-2" points="41.21 142.62 121.55 185.68 212.23 194.9 208.44 104.67 171.88 21.04 94.81 69.93 41.21 142.62"/><path class="cls-2" d="M208.44,104.67c20.82-4.77,13.6-3.57,33.92-8.31"/><path class="cls-1" d="M41.21,142.62c33.64-7.77.13-.22,33.64-7.77"/><path class="cls-2" d="M95.24,69.53C80.58,54,85.66,59.37,71.29,44.25"/><path class="cls-2" d="M111.53,218.13c10.09-33-.13-.22,10.09-33"/><path class="cls-1" d="M161.7,54c10.09-33-.12-.22,10.09-33"/><line class="cls-1" x1="188.74" y1="169.1" x2="212.23" y2="194.9"/><circle class="cls-3" cx="71.87" cy="42.86" r="6.92"/><circle class="cls-3" cx="172.38" cy="19.65" r="6.92"/><circle class="cls-3" cx="242.89" cy="94.97" r="6.92"/><circle class="cls-3" cx="212.81" cy="193.52" r="6.92"/><circle class="cls-3" cx="112.11" cy="216.55" r="6.92"/><circle class="cls-3" cx="41.69" cy="141.23" r="6.92"/><circle class="cls-4" cx="162.28" cy="52.63" r="6.92"/><circle class="cls-3" cx="95.82" cy="68.14" r="6.92"/><circle class="cls-3" cx="209.02" cy="103.28" r="6.92"/><circle class="cls-3" cx="122.2" cy="183.74" r="6.92"/><circle class="cls-4" cx="75.43" cy="133.47" r="6.92"/><circle class="cls-4" cx="189.33" cy="166.14" r="6.92"/></g><g id="Capa_3" data-name="Capa 3"><text class="cls-5" transform="translate(20.55 288)">RGNLAB</text></g></svg>